# xmcd
#
# Track frame offsets: 
#        150
#        19820
#        37960
#        56653
#        72978
#        88123
#        108903
#        137508
#        157688
#        177055
#        199865
#        214395
#        240808
#
# Disc length: 3516 seconds
#
# Revision: 0
# Processed by: cddbd v1.5.2PL0 Copyright (c) Steve Scherf et al.
# Submitted via: ExactAudioCopy v0.99pb5
#
DISCID=a40dba0d
DTITLE=Lionel Riche - Lionel Riche
DYEAR=1992
DGENRE=Pop
TTITLE0=Dancing on the ceiling
TTITLE1=Say you say me
TTITLE2=Hello
TTITLE3=Ballerina girl
TTITLE4=Truly
TTITLE5=Deep river woman
TTITLE6=All night long
TTITLE7=Endless love (with Diana Ross)
TTITLE8=The only one
TTITLE9=You are
TTITLE10=Stuck on you
TTITLE11=Se La
TTITLE12=Tonight will be alright
EXTD=
EXTT0=
EXTT1=
EXTT2=
EXTT3=
EXTT4=
EXTT5=
EXTT6=
EXTT7=
EXTT8=
EXTT9=
EXTT10=
EXTT11=
EXTT12=
PLAYORDER=
